<?xml version="1.0" standalone="no"?>
<!DOCTYPE svg PUBLIC "-//W3C//DTD SVG 20010904//EN"
 "http://www.w3.org/TR/2001/REC-SVG-20010904/DTD/svg10.dtd">
<svg version="1.0" xmlns="http://www.w3.org/2000/svg"
 width="249.000000pt" height="203.000000pt" viewBox="0 0 249.000000 203.000000"
 preserveAspectRatio="xMidYMid meet">

<g transform="translate(0.000000,203.000000) scale(0.100000,-0.100000)"
fill="#000000" stroke="none">
<path d="M1002 1885 c-29 -8 -73 -26 -99 -40 -44 -25 -47 -26 -80 -10 -19 9
-37 14 -40 11 -4 -3 8 -11 25 -17 18 -6 32 -15 32 -19 0 -19 -19 -19 -60 1
-23 11 -44 18 -47 15 -3 -3 13 -13 36 -22 22 -9 41 -20 41 -25 0 -12 -37 -11
-45 1 -3 6 -11 10 -17 10 -5 0 0 -9 13 -19 13 -11 21 -22 17 -26 -4 -4 -19 2
-34 14 -15 11 -32 21 -38 21 -6 0 6 -11 27 -25 20 -14 37 -30 37 -35 0 -15
-41 -11 -70 5 -38 22 -54 19 -31 -6 10 -11 21 -30 24 -40 5 -17 3 -18 -11 -7
-13 11 -15 11 -10 -3 5 -13 2 -16 -15 -12 -18 4 -19 3 -7 -6 12 -8 8 -11 -20
-12 -25 0 -30 -2 -17 -8 26 -10 22 -24 -9 -28 -38 -6 -91 -37 -86 -51 3 -11 7
-11 21 0 23 20 89 40 102 33 19 -12 -22 -45 -55 -45 -30 0 -103 -36 -93 -46 2
-3 21 5 40 16 40 24 72 20 74 -8 1 -12 -14 -26 -44 -42 -25 -13 -40 -26 -34
-28 6 -2 19 2 28 10 9 7 27 13 41 13 22 1 17 -6 -37 -55 -34 -30 -61 -63 -61
-72 0 -10 2 -18 5 -18 9 0 49 24 60 36 14 16 55 24 55 12 0 -6 7 -8 15 -5 8 4
-6 -22 -31 -56 -25 -34 -50 -71 -55 -82 -11 -22 -10 -21 65 76 21 27 41 47 44
45 3 -3 -3 -15 -13 -26 -10 -12 -13 -20 -6 -20 8 0 7 -11 -4 -37 -20 -46 -14
-51 20 -16 l26 28 -3 -30 c-2 -18 -15 -40 -35 -58 -18 -16 -33 -33 -33 -37 0
-4 14 5 32 21 17 17 40 35 51 40 17 10 18 8 12 -13 -4 -12 -13 -33 -21 -45 -8
-12 -14 -30 -13 -40 0 -14 2 -15 6 -3 3 8 14 26 24 39 10 13 16 27 13 32 -3 5
0 17 6 26 10 16 11 15 7 -4 -3 -13 -1 -26 4 -29 5 -3 9 1 9 8 0 11 2 11 9 0 5
-9 -5 -27 -31 -55 -37 -41 -48 -67 -28 -67 5 0 9 3 9 8 -3 20 3 30 26 40 35
16 37 15 24 -10 -9 -19 -9 -21 2 -10 7 6 15 12 18 12 10 0 -3 -254 -13 -270
-6 -8 -13 -37 -17 -65 -9 -67 -102 -225 -132 -225 -7 0 -18 -9 -25 -20 -7 -11
-21 -20 -33 -20 -32 0 -121 -31 -148 -52 -13 -10 -37 -18 -52 -18 -16 0 -29
-5 -29 -11 0 -18 73 -4 106 19 47 32 142 58 165 44 12 -8 19 -8 19 -2 0 5 7
10 15 10 8 0 15 5 15 10 0 6 -10 10 -21 10 -20 0 -19 2 7 22 45 35 48 39 87
109 20 36 37 78 37 92 0 14 9 50 21 79 18 47 20 70 18 210 -3 114 0 161 9 170
7 7 12 18 12 26 0 9 -7 6 -19 -9 l-18 -23 -17 33 c-17 31 -17 34 1 54 l18 21
-27 -17 c-28 -17 -28 -17 -28 6 0 13 6 29 13 37 6 8 3 7 -9 -3 -11 -9 -24 -14
-27 -10 -13 12 -7 21 22 33 29 12 161 152 161 171 0 6 -19 -11 -41 -37 l-41
-48 7 34 c4 19 15 44 25 55 24 27 43 65 36 72 -3 3 -10 -5 -15 -18 -5 -13 -18
-33 -30 -43 -13 -12 -23 -37 -27 -67 -4 -33 -11 -49 -21 -49 -8 0 -12 -4 -9
-9 7 -11 -50 -61 -70 -61 -25 0 -15 38 19 64 17 14 27 26 20 26 -6 0 -15 -4
-18 -10 -3 -5 -14 -14 -24 -19 -16 -9 -17 -6 -15 27 1 20 2 40 3 44 2 16 66
80 93 94 17 9 28 18 25 21 -3 2 -16 -3 -30 -12 -13 -8 -33 -18 -43 -20 -11 -2
-29 -7 -41 -11 -30 -8 -32 22 -3 31 11 4 18 10 15 15 -9 15 18 50 40 51 11 0
29 5 40 10 16 7 13 8 -12 4 -35 -5 -42 5 -19 24 10 8 16 9 21 1 3 -5 11 -10
17 -10 6 0 6 6 -2 15 -10 13 -10 19 5 35 9 10 23 16 30 14 8 -3 12 2 12 13 -2
13 4 17 19 16 15 -2 21 3 20 15 -1 11 5 16 17 14 10 -2 16 2 15 9 -6 25 32 21
41 -4 9 -23 65 -77 80 -77 13 0 47 29 34 30 -6 0 -14 -4 -17 -9 -17 -27 -96
47 -96 90 0 36 123 63 235 51 11 -2 63 0 115 2 139 7 474 7 555 1 83 -7 105
-12 105 -28 0 -7 24 -29 53 -50 67 -48 76 -64 82 -133 3 -31 7 -60 11 -65 3
-5 2 -34 -1 -64 -7 -49 -10 -55 -27 -50 -15 5 -14 2 7 -19 14 -15 23 -31 20
-36 -3 -5 1 -20 10 -33 19 -29 32 -117 17 -117 -6 0 -18 -3 -27 -6 -15 -6 -15
-4 -4 14 9 15 10 27 2 44 -10 22 -10 22 -11 -7 -1 -50 -5 -65 -15 -65 -6 0 -8
-2 -5 -5 3 -3 18 -1 33 5 51 19 73 -25 35 -72 -10 -14 -24 -47 -30 -73 -25
-111 -59 -151 -182 -213 l-84 -42 -146 0 c-150 0 -250 15 -310 46 -16 9 -55
24 -86 33 -112 36 -190 81 -256 145 -70 70 -83 105 -71 190 5 30 4 46 -3 46
-14 0 -26 -82 -19 -127 4 -20 15 -46 27 -58 11 -12 20 -26 20 -32 0 -18 115
-111 151 -121 18 -6 79 -29 134 -52 182 -76 198 -81 295 -88 l95 -7 -1 -55 c0
-30 -2 -96 -4 -146 -6 -144 7 -154 203 -154 94 0 232 -23 252 -41 14 -14 57
-11 53 3 -8 23 -141 48 -302 57 -150 9 -161 11 -178 33 -14 18 -18 33 -13 67
3 25 8 89 12 142 l6 98 66 0 c178 -2 361 141 361 280 0 27 7 44 25 61 24 23
33 64 16 74 -4 3 -11 32 -14 64 -2 33 -12 70 -20 83 -12 19 -15 50 -14 139 2
159 -12 206 -83 280 -80 83 -80 83 -474 74 -370 -8 -369 -8 -446 0 -35 4 -75
0 -108 -9z m-273 -194 c9 -6 10 -11 2 -15 -13 -8 -31 1 -31 15 0 11 11 11 29
0z m-69 -91 c0 -5 -5 -10 -11 -10 -5 0 -7 5 -4 10 3 6 8 10 11 10 2 0 4 -4 4
-10z m36 -93 c-15 -19 -26 -39 -26 -45 0 -7 -4 -12 -10 -12 -5 0 -10 12 -10
26 0 14 -4 23 -10 19 -14 -8 -13 8 1 22 6 6 17 9 25 6 7 -2 21 0 31 6 26 15
26 14 -1 -22z m-66 -106 c0 -11 -9 -21 -22 -24 -31 -8 -33 -2 -9 22 26 26 31
26 31 2z m50 -110 c0 -5 -7 -14 -15 -21 -16 -14 -18 -10 -9 14 6 17 24 22 24
7z m80 -161 c0 -5 -5 -10 -11 -10 -5 0 -7 5 -4 10 3 6 8 10 11 10 2 0 4 -4 4
-10z"/>
<path d="M1450 1849 c-122 -14 -105 -17 75 -12 94 3 173 8 177 12 10 9 -167 9
-252 0z"/>
<path d="M970 1840 c-8 -5 -10 -10 -5 -10 6 0 17 5 25 10 8 5 11 10 5 10 -5 0
-17 -5 -25 -10z"/>
<path d="M1031 1804 c0 -17 6 -37 14 -44 16 -13 21 0 6 16 -5 5 -11 20 -14 34
-4 22 -4 21 -6 -6z"/>
<path d="M975 1809 c-11 -17 -2 -18 19 -3 17 12 17 14 4 14 -9 0 -20 -5 -23
-11z"/>
<path d="M1120 1800 c-14 -11 -20 -20 -14 -20 6 0 19 9 29 20 23 25 17 25 -15
0z"/>
<path d="M1700 1808 c-69 -4 -207 -7 -307 -6 -104 2 -175 -1 -166 -6 36 -20
597 -5 619 17 4 4 1 6 -7 6 -8 -1 -70 -6 -139 -11z"/>
<path d="M1000 1769 c0 -5 5 -7 10 -4 6 3 10 8 10 11 0 2 -4 4 -10 4 -5 0 -10
-5 -10 -11z"/>
<path d="M1136 1735 c-11 -8 -17 -17 -14 -20 3 -3 16 3 29 14 27 23 14 28 -15
6z"/>
<path d="M1315 1743 c-78 -17 -155 -48 -155 -61 0 -11 3 -12 14 -3 8 6 46 21
85 31 145 40 191 24 258 -93 7 -12 13 -16 13 -8 0 7 -16 39 -35 71 -33 54 -38
58 -81 64 -50 6 -67 6 -99 -1z"/>
<path d="M1718 1733 c6 -2 18 -2 25 0 6 3 1 5 -13 5 -14 0 -19 -2 -12 -5z"/>
<path d="M1786 1725 c-16 -9 -38 -13 -50 -10 -18 5 -19 5 -4 -5 11 -7 15 -17
11 -28 -4 -9 4 -4 18 11 33 38 111 47 154 18 72 -49 78 -51 36 -12 -38 36 -49
41 -90 41 -25 0 -59 -7 -75 -15z"/>
<path d="M860 1720 c0 -5 7 -7 15 -4 8 4 15 8 15 10 0 2 -7 4 -15 4 -8 0 -15
-4 -15 -10z"/>
<path d="M1070 1725 c0 -15 18 -40 24 -34 3 3 -1 14 -9 25 -8 10 -14 15 -15 9z"/>
<path d="M1568 1713 c23 -2 59 -2 80 0 20 2 1 4 -43 4 -44 0 -61 -2 -37 -4z"/>
<path d="M790 1701 c0 -5 5 -13 10 -16 6 -3 10 -2 10 4 0 5 -4 13 -10 16 -5 3
-10 2 -10 -4z"/>
<path d="M925 1670 c-16 -16 -27 -32 -24 -34 2 -3 19 11 37 30 18 19 29 34 24
34 -4 0 -21 -13 -37 -30z"/>
<path d="M870 1683 c-8 -2 -25 -10 -38 -16 -21 -10 -22 -12 -5 -18 14 -5 8
-11 -29 -28 -26 -11 -50 -25 -53 -31 -9 -15 -3 -13 46 15 24 14 52 28 62 31 9
4 17 11 17 16 0 6 -7 7 -16 4 -8 -3 -12 -2 -9 4 3 6 14 10 23 10 9 0 24 5 32
10 13 9 13 10 0 9 -8 0 -22 -3 -30 -6z"/>
<path d="M937 1628 c-10 -17 -16 -32 -14 -35 6 -6 39 47 35 57 -2 5 -11 -4
-21 -22z"/>
<path d="M1364 1645 c11 -8 25 -15 30 -15 6 0 2 7 -8 15 -11 8 -25 15 -30 15
-6 0 -2 -7 8 -15z"/>
<path d="M1765 1610 c-4 -17 -5 -34 -2 -36 3 -3 8 9 12 26 4 17 5 34 2 36 -3
3 -8 -9 -12 -26z"/>
<path d="M954 1598 l-29 -31 33 22 c17 12 32 27 32 32 0 14 -4 11 -36 -23z"/>
<path d="M1170 1611 c0 -5 5 -13 10 -16 6 -3 10 -2 10 4 0 5 -4 13 -10 16 -5
3 -10 2 -10 -4z"/>
<path d="M810 1559 c-30 -28 -41 -42 -25 -31 28 19 94 82 84 82 -2 0 -29 -23
-59 -51z"/>
<path d="M1829 1590 l-24 -21 35 17 c43 21 47 24 28 24 -9 0 -26 -9 -39 -20z"/>
<path d="M2001 1584 c0 -11 3 -14 6 -6 3 7 2 16 -1 19 -3 4 -6 -2 -5 -13z"/>
<path d="M971 1559 c-13 -10 -19 -19 -14 -19 13 0 49 27 43 33 -3 3 -16 -3
-29 -14z"/>
<path d="M1229 1561 c-25 -11 -21 -63 8 -93 26 -27 30 -28 130 -28 103 0 104
0 114 26 5 15 8 28 7 29 -2 1 -30 16 -63 33 -58 30 -161 47 -196 33z m76 -61
c0 -29 -4 -40 -15 -40 -17 1 -60 34 -60 47 0 17 24 33 50 33 23 0 25 -4 25
-40z m149 -6 c20 -7 9 -34 -14 -34 -13 0 -17 5 -13 20 6 22 6 22 27 14z"/>
<path d="M1496 1544 c-4 -9 -4 -19 -1 -22 2 -3 7 3 11 12 4 9 4 19 1 22 -2 3
-7 -3 -11 -12z"/>
<path d="M1091 1539 c-13 -5 -22 -12 -19 -15 3 -2 17 1 32 7 20 9 32 10 54 0
25 -10 26 -10 8 4 -22 17 -40 18 -75 4z"/>
<path d="M1915 1530 c-11 -5 -34 -9 -50 -9 -44 -1 -75 -26 -75 -62 0 -27 3
-29 39 -29 21 0 55 -7 74 -15 20 -8 46 -15 58 -15 19 0 21 4 17 60 -2 43 1 60
10 60 6 0 12 5 12 10 0 12 -57 12 -85 0z m-35 -60 c0 -23 -5 -30 -19 -30 -48
0 -68 29 -33 49 33 20 52 13 52 -19z m80 -40 c0 -13 -20 -13 -40 0 -12 8 -9
10 13 10 15 0 27 -4 27 -10z"/>
<path d="M902 1510 c0 -14 2 -19 5 -12 2 6 2 18 0 25 -3 6 -5 1 -5 -13z"/>
<path d="M567 1500 c-18 -22 -4 -28 23 -10 11 7 11 10 2 10 -7 0 -10 5 -7 10
10 17 0 11 -18 -10z"/>
<path d="M735 1474 c-9 -14 -14 -28 -12 -31 3 -3 13 9 22 26 19 38 14 41 -10
5z"/>
<path d="M1117 1493 c-13 -12 -7 -26 6 -15 6 6 26 12 42 15 28 4 28 4 -6 6
-20 0 -39 -2 -42 -6z"/>
<path d="M2018 1493 c7 -3 16 -2 19 1 4 3 -2 6 -13 5 -11 0 -14 -3 -6 -6z"/>
<path d="M910 1454 c-21 -24 -34 -33 -39 -25 -7 11 -41 -20 -70 -64 -7 -11 2
-3 21 18 45 47 59 48 23 1 -16 -20 -24 -35 -18 -33 16 7 136 139 125 139 -5 0
-24 -16 -42 -36z"/>
<path d="M765 1470 c-3 -5 -1 -10 4 -10 6 0 11 5 11 10 0 6 -2 10 -4 10 -3 0
-8 -4 -11 -10z"/>
<path d="M1707 1463 c-13 -12 -7 -48 21 -128 26 -75 31 -81 75 -105 26 -14 47
-28 47 -33 0 -4 -14 -16 -31 -26 -17 -10 -27 -21 -22 -24 13 -8 73 32 73 49 0
7 -19 22 -43 32 -54 24 -85 83 -94 178 -6 61 -11 73 -26 57z"/>
<path d="M1154 1444 c-18 -14 -18 -14 6 -3 31 14 36 19 24 19 -6 0 -19 -7 -30
-16z"/>
<path d="M2030 1437 c19 -7 37 -12 39 -10 9 6 -6 13 -40 18 l-34 6 35 -14z"/>
<path d="M1348 1423 c12 -2 30 -2 40 0 9 3 -1 5 -23 4 -22 0 -30 -2 -17 -4z"/>
<path d="M1462 1403 c-18 -14 -63 -36 -100 -49 -37 -13 -60 -23 -51 -24 45 -1
189 69 189 91 0 12 0 12 -38 -18z"/>
<path d="M1176 1411 c-4 -5 3 -7 14 -4 23 6 26 13 6 13 -8 0 -17 -4 -20 -9z"/>
<path d="M886 1359 c-27 -28 -41 -47 -30 -41 21 11 97 92 86 92 -4 0 -29 -23
-56 -51z"/>
<path d="M1865 1400 c28 -12 37 -12 30 0 -3 6 -16 10 -28 9 -21 0 -21 -1 -2
-9z"/>
<path d="M2001 1407 c2 -1 15 -11 28 -22 l24 -20 -14 23 c-8 12 -20 22 -28 22
-8 0 -12 -1 -10 -3z"/>
<path d="M1790 1395 c0 -13 56 -55 88 -65 17 -7 32 -16 32 -21 0 -5 10 -9 22
-9 17 0 9 7 -27 26 -28 15 -65 37 -82 51 -18 13 -33 21 -33 18z"/>
<path d="M1496 1355 c-9 -26 -7 -32 5 -12 6 10 9 21 6 23 -2 3 -7 -2 -11 -11z"/>
<path d="M575 1324 c-16 -14 -21 -21 -10 -15 30 14 61 40 50 41 -5 0 -23 -12
-40 -26z"/>
<path d="M1780 1343 c0 -4 5 -15 10 -23 8 -13 10 -13 10 2 0 9 -4 20 -10 23
-5 3 -10 3 -10 -2z"/>
<path d="M908 1300 c-2 -16 -1 -27 3 -25 11 7 18 44 9 50 -4 3 -10 -8 -12 -25z"/>
<path d="M1110 1322 c0 -15 27 -45 36 -41 5 2 -1 14 -13 26 -13 12 -23 19 -23
15z"/>
<path d="M765 1310 c-3 -5 -2 -10 4 -10 5 0 13 5 16 10 3 6 2 10 -4 10 -5 0
-13 -4 -16 -10z"/>
<path d="M801 1281 c-1 -8 -11 -25 -23 -38 -12 -13 -17 -23 -12 -23 14 1 46
49 41 63 -4 8 -6 7 -6 -2z"/>
<path d="M870 1265 c0 -14 2 -25 4 -25 2 0 6 11 8 25 3 14 1 25 -3 25 -5 0 -9
-11 -9 -25z"/>
<path d="M1565 1281 c-6 -5 -21 -11 -35 -13 -21 -2 -26 -10 -30 -43 -5 -36 -8
-40 -37 -43 -33 -3 -113 31 -113 48 0 6 -5 10 -11 10 -20 0 12 -30 54 -51 23
-12 54 -19 76 -18 27 2 46 -3 66 -19 44 -35 56 -26 19 15 -37 41 -44 71 -16
79 52 17 71 27 66 35 -7 12 -27 11 -39 0z"/>
<path d="M1148 1263 c-31 -20 -50 -63 -37 -84 7 -11 9 -11 9 3 0 32 22 65 53
81 18 9 25 16 17 16 -8 0 -27 -7 -42 -16z"/>
<path d="M846 1244 c-8 -22 -8 -54 2 -54 4 0 7 16 8 35 1 39 -1 42 -10 19z"/>
<path d="M1244 1245 c-10 -8 -31 -15 -45 -15 -42 0 -52 -43 -19 -81 l20 -24
-16 33 c-18 38 -7 62 31 62 12 0 30 9 40 20 21 24 17 26 -11 5z"/>
<path d="M1989 1203 l-24 -28 28 24 c15 14 27 26 27 28 0 8 -8 1 -31 -24z"/>
<path d="M2059 1214 c-7 -9 -18 -26 -24 -38 -6 -11 -33 -33 -60 -48 -73 -39
-185 -52 -379 -44 -165 7 -188 13 -236 58 -57 53 -63 54 -39 12 12 -21 32 -50
43 -63 57 -64 257 -119 390 -107 87 8 186 59 260 132 64 65 86 91 86 104 0 16
-26 12 -41 -6z"/>
<path d="M1258 1183 c6 -2 18 -2 25 0 6 3 1 5 -13 5 -14 0 -19 -2 -12 -5z"/>
<path d="M1632 1177 c-17 -20 -12 -40 6 -28 8 5 12 16 10 26 -3 17 -4 17 -16
2z"/>
<path d="M1732 1173 c2 -10 11 -19 21 -21 16 -3 17 -1 5 17 -16 25 -31 27 -26
4z"/>
<path d="M1888 1173 c7 -3 16 -2 19 1 4 3 -2 6 -13 5 -11 0 -14 -3 -6 -6z"/>
<path d="M1938 1173 c7 -3 16 -2 19 1 4 3 -2 6 -13 5 -11 0 -14 -3 -6 -6z"/>
<path d="M1257 1122 c6 -4 14 -19 18 -34 4 -15 14 -33 23 -40 13 -11 14 -11 4
7 -7 11 -16 32 -22 48 -5 15 -15 27 -22 27 -10 0 -10 -2 -1 -8z"/>
<path d="M995 892 c0 -48 -4 -96 -8 -107 -9 -20 -8 -20 7 -1 17 21 23 159 8
183 -4 6 -7 -28 -7 -75z"/>
<path d="M1860 953 c-35 -15 -209 -20 -234 -6 -7 4 -7 1 1 -7 20 -22 165 -26
218 -6 25 10 47 22 50 27 7 11 9 11 -35 -8z"/>
<path d="M965 628 c-31 -11 -47 -28 -87 -88 -13 -19 -35 -40 -48 -47 l-25 -13
26 0 c28 0 58 28 83 78 11 21 30 38 56 48 22 9 40 20 40 25 0 11 -6 10 -45 -3z"/>
<path d="M1471 540 c6 -17 19 -35 29 -40 31 -17 34 -11 6 11 -14 11 -26 27
-26 34 0 8 -4 16 -10 20 -5 3 -5 -7 1 -25z"/>
<path d="M1200 381 c46 -10 77 -27 90 -51 8 -15 21 -20 48 -20 31 0 43 6 60
29 16 22 32 31 59 34 l38 4 -38 1 c-32 2 -44 -4 -65 -28 -29 -33 -78 -41 -88
-15 -10 24 -69 55 -105 54 l-34 -1 35 -7z"/>
</g>
</svg>
